<svg xmlns="http://www.w3.org/2000/svg" xmlns:xlink="http://www.w3.org/1999/xlink" width="40" height="40" viewBox="0 0 40 40">
    <defs>
        <path id="a" d="M0 .013h39.987V39.92H0z"/>
    </defs>
    <g fill="none" fill-rule="evenodd">
        <g transform="translate(0 .067)">
            <mask id="b" fill="#fff">
                <use xlink:href="#a"/>
            </mask>
            <path fill="#000" d="M19.994.013c-5.43 0-6.111.023-8.244.12C9.622.23 8.17.567 6.897 1.06a9.802 9.802 0 0 0-3.541 2.302A9.78 9.78 0 0 0 1.05 6.896C.555 8.166.217 9.616.12 11.74.023 13.868 0 14.547 0 19.967c0 5.419.023 6.098.12 8.227.097 2.124.435 3.574.93 4.843a9.779 9.779 0 0 0 2.306 3.535 9.803 9.803 0 0 0 3.541 2.301c1.272.494 2.725.83 4.853.928 2.133.097 2.814.12 8.244.12s6.11-.023 8.243-.12c2.128-.097 3.582-.434 4.853-.928a9.803 9.803 0 0 0 3.542-2.301 9.778 9.778 0 0 0 2.306-3.535c.494-1.269.832-2.72.93-4.843.096-2.129.12-2.808.12-8.227 0-5.42-.024-6.099-.12-8.227-.098-2.124-.436-3.575-.93-4.844a9.78 9.78 0 0 0-2.306-3.534A9.801 9.801 0 0 0 33.09 1.06C31.82.567 30.365.23 28.237.133c-2.133-.097-2.813-.12-8.243-.12m0 3.595c5.338 0 5.97.02 8.079.116 1.95.089 3.008.414 3.712.687.934.362 1.6.795 2.3 1.493.699.698 1.132 1.363 1.495 2.294.274.703.6 1.76.688 3.706.096 2.104.117 2.735.117 8.063 0 5.328-.02 5.959-.117 8.063-.089 1.945-.414 3.002-.688 3.705-.363.931-.796 1.596-1.496 2.294-.7.699-1.365 1.131-2.299 1.493-.704.273-1.763.598-3.712.687-2.108.096-2.74.116-8.08.116-5.338 0-5.97-.02-8.078-.116-1.95-.089-3.009-.414-3.713-.687-.933-.362-1.6-.794-2.299-1.493-.7-.698-1.133-1.363-1.496-2.294-.273-.703-.599-1.76-.688-3.705-.096-2.104-.116-2.735-.116-8.063 0-5.328.02-5.96.116-8.063.089-1.946.415-3.003.688-3.706.363-.931.796-1.596 1.496-2.294s1.366-1.13 2.299-1.493c.704-.273 1.763-.598 3.712-.687 2.109-.096 2.741-.116 8.08-.116" mask="url(#b)"/>
        </g>
        <path fill="#000" d="M19.994 26.685c-3.681 0-6.665-2.978-6.665-6.652 0-3.673 2.984-6.651 6.665-6.651 3.68 0 6.664 2.978 6.664 6.651 0 3.674-2.984 6.652-6.664 6.652m0-16.898c-5.67 0-10.267 4.587-10.267 10.246 0 5.66 4.596 10.247 10.267 10.247 5.67 0 10.267-4.588 10.267-10.247S25.664 9.787 19.994 9.787M33.066 9.382a2.397 2.397 0 0 1-2.4 2.394 2.397 2.397 0 0 1-2.399-2.394 2.397 2.397 0 0 1 2.4-2.395c1.324 0 2.399 1.072 2.399 2.395"/>
    </g>
</svg>
