<svg xmlns="http://www.w3.org/2000/svg" width="47" height="38" viewBox="0 0 47 38">
    <path fill="#000" fill-rule="evenodd" d="M14.781 38c17.737 0 27.436-14.618 27.436-27.294 0-.416-.008-.83-.027-1.24A19.563 19.563 0 0 0 47 4.499a19.327 19.327 0 0 1-5.538 1.51 9.636 9.636 0 0 0 4.24-5.307 19.385 19.385 0 0 1-6.122 2.329A9.656 9.656 0 0 0 32.54 0c-5.326 0-9.644 4.296-9.644 9.592 0 .753.085 1.485.25 2.187A27.423 27.423 0 0 1 3.271 1.757a9.572 9.572 0 0 0 2.985 12.806 9.608 9.608 0 0 1-4.367-1.2c-.002.04-.002.08-.002.123 0 4.646 3.324 8.525 7.736 9.404a9.724 9.724 0 0 1-4.355.165 9.648 9.648 0 0 0 9.009 6.663A19.412 19.412 0 0 1 2.3 33.824c-.778 0-1.545-.044-2.3-.133A27.401 27.401 0 0 0 14.781 38"/>
</svg>
