<svg xmlns="http://www.w3.org/2000/svg" xmlns:xlink="http://www.w3.org/1999/xlink" width="54" height="54" viewBox="0 0 54 54">
    <defs>
        <path id="a" d="M0 .033h31.986v22.82H0z"/>
    </defs>
    <g fill="none" fill-rule="evenodd" transform="translate(2 2)">
        <circle cx="25" cy="25" r="25" stroke="#FFF" stroke-width="4"/>
        <g transform="translate(9 14)">
            <mask id="b" fill="#fff">
                <use xlink:href="#a"/>
            </mask>
            <path fill="#FFF" d="M15.993 19.884c-4.764 0-8.626-3.78-8.626-8.442 0-4.662 3.862-8.44 8.626-8.44 4.764 0 8.627 3.778 8.627 8.44 0 4.663-3.863 8.442-8.627 8.442M31.356 9.7c-2.513-3.728-5.752-6.636-9.924-8.48-3.247-1.436-6.573-1.587-9.94-.363-2.24.814-4.223 2.044-6.03 3.558C3.515 6.048 1.83 7.896.475 10.041c-.657 1.04-.62 1.963.036 2.977 2.097 3.238 4.84 5.814 8.207 7.75 2.24 1.287 4.647 2.066 7.357 2.084.73-.01 1.539-.077 2.338-.232 2.314-.45 4.407-1.404 6.34-2.702 2.638-1.77 4.864-3.933 6.61-6.574.829-1.252.836-2.394-.007-3.643" mask="url(#b)"/>
            <ellipse cx="16" cy="11.5" fill="#FFF" rx="4.8" ry="4.929"/>
        </g>
    </g>
</svg>
