<svg xmlns="http://www.w3.org/2000/svg" xmlns:xlink="http://www.w3.org/1999/xlink" width="448" height="247" viewBox="0 0 448 247">
    <defs>
        <path id="a" d="M.276.742H139V242.94H.276z"/>
        <path id="c" d="M0 247h448V.741H0z"/>
    </defs>
    <g fill="none" fill-rule="evenodd">
        <path fill="gray" d="M94.354 1L14 144.271v54.418h80.354v44.508h38.444v-44.508h19.926v-51.332h-19.926V1H94.354zm0 71.415v74.942H51.897l42.457-74.942z"/>
        <g>
            <path fill="gray" d="M209.647 123.058c0 30.323 1.787 51.034 5.36 62.134 3.575 11.101 8.753 16.65 15.54 16.65 4.476 0 8.356-2.355 11.642-7.067 3.284-4.71 5.702-12.154 7.256-22.335 1.552-10.178 2.328-26.044 2.328-47.595 0-31.62-1.787-52.874-5.36-63.758-3.575-10.883-8.935-16.325-16.082-16.325-7.293 0-12.562 5.551-15.811 16.65-3.25 11.102-4.873 31.651-4.873 61.646m-43.75-.162c0-45.265 5.43-76.94 16.298-95.027C193.059 9.785 209.61.742 231.847.742c10.684 0 19.455 1.976 26.316 5.928 6.857 3.954 12.453 9.097 16.785 15.432 4.332 6.335 7.743 12.995 10.233 19.98 2.49 6.985 4.494 15.135 6.01 24.448 2.96 17.761 4.44 36.28 4.44 55.553 0 43.21-4.873 74.832-14.62 94.866-9.745 20.036-26.531 30.05-50.355 30.05-13.358 0-24.15-3.195-32.38-9.584-8.23-6.387-14.982-15.755-20.25-28.1-3.828-8.773-6.806-20.766-8.935-35.982-2.131-15.212-3.194-32.026-3.194-50.437"/>
            <g transform="translate(309)">
                <mask id="b" fill="#fff">
                    <use xlink:href="#a"/>
                </mask>
                <path fill="#DDCF21" d="M80.63 147.1V72.156L38.172 147.1H80.63zm0 51.33H.276v-54.417L80.63.743h38.444v146.356H139v51.331h-19.926v44.51H80.63v-44.51z" mask="url(#b)"/>
            </g>
            <mask id="d" fill="#fff">
                <use xlink:href="#c"/>
            </mask>
            <path fill="#FFF" d="M0 129.829h302.957V63.294H0zM303.4 129.607h141.055V94.122H303.4z" mask="url(#d)"/>
            <path fill="#444746" d="M167.137 87.543h5.189V84.43h-5.189v3.113zm9.755 30.096c-3.6-.694-8.234-1.939-13.906-3.736l1.661-3.113a499.671 499.671 0 0 0 13.698 3.113l-1.453 3.736zM158.42 87.544h5.188v-3.113h-5.188v3.113zm-6.642 20.132h18.473v-2.283h-18.473v2.283zm0-4.981h18.473v-2.283h-18.473v2.283zm0-4.774h18.473v-2.49h-18.473v2.49zm-1.868-10.377h4.773v-3.113h-4.773v3.113zm-2.906 23.246h28.021V92.525h-28.021v18.265zm-1.453-20.548h30.926V81.94h-30.926v8.302zm-.622-15.982v-3.321h13.491v-3.113h5.189v3.113h13.906v3.321h-13.906v2.491h11.831v2.906h-28.851v-2.906h11.831V74.26h-13.491zm.415 43.379l-.83-1.66c-.279-.83-.556-1.453-.831-1.868 4.288-.97 8.718-1.94 13.284-2.906l1.66 2.906c-4.151 1.381-8.581 2.559-13.283 3.528zm-15.152-44.21h12.454v-3.943h-12.454v3.943zm-1.037 22.417h14.321v-3.944h-14.321v3.944zm0-7.473h14.321V84.43h-14.321v3.943zm-1.245-7.264h16.812v-4.358H127.91v4.358zM133.513 113.033h5.812v-9.507h-5.812v9.507zm-4.151 3.776h13.906V99.374h-13.906v17.435z" mask="url(#d)"/>
        </g>
        <text fill="#444746" font-family="Seravek-Medium, Seravek" font-size="32.024" font-weight="400" letter-spacing=".1">
            <tspan x="334" y="119">READr</tspan>
        </text>
        <path fill="#444746" d="M205.65 77.918h-10.188V67.73h-4.367v10.188h-10.187v4.366h10.187v10.188h4.367V82.284h10.188z"/>
        <path fill="#DDCF21" d="M159.562 125.417l-22.942 15.945v-15.968h-15.082V67.729h-4.436v62.1h15.082v20.404l27.5-19.96h268.359v-4.88z"/>
    </g>
</svg>
